<svg width="160" height="160" viewBox="0 0 160 160" xmlns="http://www.w3.org/2000/svg">
  <defs>
    <clipPath id="ak">
      <polygon points="77,36 83,36 48,124 16,124"/>
      <polygon points="77,36 83,36 144,124 112,124"/>
      <rect x="60" y="86" width="40" height="11" rx="1.5"/>
    </clipPath>
  </defs>

  <rect x="0" y="0" width="160" height="160" rx="30" fill="transparent"/>

  <rect x="0"   y="0" width="5"  height="160" clip-path="url(#ak)" fill="#FFFFFF"/>
  <rect x="5"   y="0" width="5"  height="160" clip-path="url(#ak)" fill="#F0EEEA"/>
  <rect x="10"  y="0" width="7"  height="160" clip-path="url(#ak)" fill="#E2E0DB"/>
  <rect x="17"  y="0" width="7"  height="160" clip-path="url(#ak)" fill="#D2D0CB"/>
  <rect x="24"  y="0" width="9"  height="160" clip-path="url(#ak)" fill="#BEBCB8"/>
  <rect x="33"  y="0" width="10" height="160" clip-path="url(#ak)" fill="#A6A4A0"/>
  <rect x="43"  y="0" width="12" height="160" clip-path="url(#ak)" fill="#888682"/>
  <rect x="55"  y="0" width="14" height="160" clip-path="url(#ak)" fill="#646260"/>
  <rect x="69"  y="0" width="17" height="160" clip-path="url(#ak)" fill="#444240"/>
  <rect x="86"  y="0" width="22" height="160" clip-path="url(#ak)" fill="#2C2A28"/>
  <rect x="108" y="0" width="52" height="160" clip-path="url(#ak)" fill="#3A3836"/>
</svg>
